<?xml version="1.0" encoding="UTF-8"?> <svg xmlns="http://www.w3.org/2000/svg" height="511pt" viewBox="1 1 511 511.99961" width="511pt"><path d="m496.644531 185.558594-169.703125-169.703125c-4.191406-4.1875-9.78125-6.128907-15.269531-5.828125l-300.941406 301.5625c-.171875 5.328125 1.777343 10.707031 5.847656 14.777344 16.132813 16.132812 151.320313 151.320312 169.710937 169.710937 7.804688 7.804687 20.4375 7.824219 28.28125 0l282.074219-282.230469c7.816407-7.839844 7.789063-20.5 0-28.289062zm0 0" fill="#ffdf8e"></path><path d="m311.671875 10.027344c-.65625 6.789062-24.554687 253.8125-24.800781 256.332031-.738282 9.847656-8.558594 17.6875-18.410156 18.4375-.117188.011719-256.683594 26.683594-257.730469 26.792969.160156-4.902344 2.109375-9.75 5.847656-13.5l282.074219-282.234375c3.621094-3.609375 8.277344-5.558594 13.019531-5.828125zm0 0" fill="#ffb64c"></path><path d="m249.929688 390.007812c-3.910157 3.910157-3.910157 10.242188 0 14.140626 3.902343 3.910156 10.230468 3.910156 14.140624 0 3.902344-3.898438 3.902344-10.230469 0-14.140626-3.910156-3.898437-10.238281-3.898437-14.140624 0zm0 0"></path><path d="m404.71875 249.191406c-3.910156-3.902344-10.238281-3.898437-14.140625.011719l-112.371094 112.53125c-3.902343 3.90625-3.898437 10.238281.007813 14.140625 3.90625 3.898438 10.238281 3.902344 14.144531-.011719l112.371094-112.527343c3.902343-3.910157 3.894531-10.242188-.011719-14.144532zm0 0"></path><path d="m3.433594 494.921875c-3.90625 3.902344-3.914063 10.234375-.011719 14.144531 3.886719 3.890625 10.21875 3.929688 14.144531.007813l83.859375-83.71875 14.140625 14.140625-41.414062 41.28125c-3.914063 3.898437-3.921875 10.230468-.023438 14.140625 3.894532 3.90625 10.222656 3.929687 14.140625.023437l41.441407-41.300781 49.507812 49.511719c11.707031 11.703125 30.652344 11.738281 42.425781-.003906l282.078125-282.238282c11.789063-11.820312 11.609375-30.804687-.007812-42.421875l-169.699219-169.703125c-11.785156-11.785156-30.761719-11.644531-42.4375 0l-282.078125 282.242188c-11.742188 11.769531-11.660156 30.742187.007812 42.414062l49.488282 49.488282-41.417969 41.277343c-3.910156 3.898438-3.921875 10.230469-.023437 14.140625 3.894531 3.90625 10.226562 3.929688 14.144531.027344l41.441406-41.304688 14.140625 14.144532zm21.125-174.71875 165.941406-17.242187v183.1875c-20.644531-20.644532-147.28125-147.28125-165.941406-165.945313zm185.941406 165.800781v-185.121094l58.871094-6.125c14.773437-1.199218 26.296875-12.746093 27.464844-27.53125l5.535156-57.230468h183.980468zm276.441406-296.007812h-182.636718l16.113281-166.523438zm-187.136718-161.148438-22.886719 236.546875c-.003907.070313-.011719.140625-.019531.210938-.371094 4.964843-4.238282 8.84375-9.195313 9.21875-.09375.007812-.183594.015625-.273437.027343-.125.011719-238.089844 24.746094-238.238282 24.761719zm0 0"></path></svg> 