<?xml version="1.0" encoding="UTF-8"?> <svg xmlns="http://www.w3.org/2000/svg" id="Capa_1" height="512" viewBox="0 0 512 512" width="512"><g><g><path d="m260.562 182.159 7.384-14.76-9.356-4.678c3.721-9.249 5.66-19.232 5.66-29.19h-16.5c0 9.513-2.244 19.05-6.51 27.573l-4.562 9.117z"></path><path d="m256 216.035c13.324 0 25.304-7.401 31.261-19.322l.866-1.741-14.76-7.368-.866 1.733c-3.143 6.287-9.463 10.197-16.501 10.197s-13.357-3.911-16.501-10.189l-.866-1.741-14.76 7.368.866 1.749c5.957 11.906 17.937 19.314 31.261 19.314z"></path><path d="m237.082 137.839-11.666-11.666-2.417 2.409c-4.414 4.414-12.087 4.414-16.501 0l-2.417-2.417-11.666 11.666 2.417 2.426c5.33 5.321 12.4 8.25 19.916 8.25s14.595-2.929 19.916-8.25z"></path><path d="m297.252 148.506c7.516 0 14.595-2.929 19.916-8.25l2.417-2.417-11.666-11.666-2.417 2.409c-4.414 4.414-12.087 4.414-16.501 0l-2.417-2.417-11.666 11.666 2.417 2.426c5.322 5.32 12.401 8.249 19.917 8.249z"></path><path d="m340.863 263.937-43.611-5.651v-11.79c26.467-11.055 44.849-35.287 48.685-63.462h.817c18.2 0 33.001-14.801 33.001-33.001 0-4.315-.883-8.424-2.401-12.202l1.906-1.906c10.965-10.965 16.996-25.543 16.996-41.045 0-15.337-5.915-29.767-16.657-40.699-1.807-21.08-19.553-37.679-41.095-37.679h-4.967c-11.864-10.669-27.037-16.502-43.125-16.502h-4.62c-9.975 0-19.966 2.36-28.884 6.815l-.908.462-.916-.462c-8.918-4.455-18.91-6.815-28.884-6.815h-4.62c-16.08 0-31.261 5.833-43.125 16.501h-4.958c-21.542 0-39.288 16.6-41.095 37.679-10.742 10.932-16.657 25.362-16.657 40.699 0 15.502 6.031 30.081 17.004 41.045l1.906 1.906c-1.526 3.779-2.409 7.879-2.409 12.202 0 18.2 14.801 33.001 33.001 33.001h.817c3.836 28.183 22.218 52.406 48.685 63.462v11.79l-43.611 5.66c-40.988 5.313-71.894 40.484-71.894 81.81v64.699c0 28.431 23.134 51.565 51.556 51.565 2.087 0 4.15-.132 6.196-.38v49.857l198.008.504v-50.36c2.046.248 4.109.38 6.196.38 28.422 0 51.556-23.134 51.556-51.565v-64.699c.001-41.326-30.905-76.498-71.893-81.819zm5.891-97.404v-33.001c9.1 0 16.501 7.401 16.501 16.501-.001 9.1-7.401 16.5-16.501 16.5zm-214.509-71.654c0-11.097 4.315-21.525 12.169-29.379l4.331-4.331v-3.416c0-13.646 11.105-24.751 24.751-24.751h11.666l2.417-2.417c9.084-9.084 21.154-14.083 34-14.083h4.62c7.425 0 14.867 1.757 21.5 5.074l8.3 4.15 8.3-4.15c6.642-3.317 14.075-5.074 21.5-5.074h4.62c12.846 0 24.924 5 34 14.083l2.417 2.417h11.666c13.646 0 24.751 11.105 24.751 24.751v3.416l4.331 4.331c7.854 7.854 12.169 18.283 12.169 29.379s-4.315 21.525-12.169 29.379l-.215.215c-5.668-4.579-12.78-7.442-20.618-7.442v-7.83c0-9.331-1.568-18.464-4.496-27.259.809-.734 1.658-1.427 2.434-2.211l7.896-7.904-11.666-11.666-7.896 7.904c-9.315 9.306-21.698 14.438-34.858 14.438-9.76 0-19.215-2.863-27.333-8.275l-14.832-9.892-14.834 9.884c-8.118 5.42-17.581 8.283-27.333 8.283-13.159 0-25.543-5.132-34.858-14.438l-7.896-7.904-11.666 11.666 7.896 7.904c.784.784 1.625 1.469 2.434 2.203-2.929 8.803-4.496 17.936-4.496 27.267v7.83c-7.838 0-14.95 2.863-20.618 7.442l-.214-.215c-7.855-7.854-12.17-18.282-12.17-29.379zm16.5 55.154c0-9.1 7.401-16.501 16.501-16.501v33.001c-9.1 0-16.501-7.4-16.501-16.5zm33.002 22.069v-62.909c0-5.907.817-11.707 2.269-17.359 9.133 4.661 19.273 7.17 29.817 7.17 13.027 0 25.642-3.82 36.491-11.047l5.676-3.787 5.676 3.787c10.849 7.227 23.464 11.047 36.491 11.047 10.536 0 20.684-2.508 29.817-7.161 1.452 5.66 2.269 11.451 2.269 17.359v62.909c0 27.655-17.631 52.101-43.859 60.846l-5.643 1.881v27.837c-3.564 10.668-13.506 17.837-24.751 17.837s-21.187-7.17-24.751-17.862v-27.812l-5.643-1.881c-26.228-8.746-43.859-33.2-43.859-60.855zm-8.481 108.204 45.179-5.858c2.087 3.927 4.736 7.45 7.846 10.478-8.151 4.364-14.603 11.691-17.68 20.906l-1.147 3.449-33.967 37.737v-13.588c0-5.321 2.071-10.321 5.833-14.083l-11.666-11.674c-6.881 6.881-10.668 16.022-10.668 25.758v13.085h-41.252v-.759c0-33.061 24.726-61.203 57.522-65.451zm-57.522 130.149v-47.439h41.252v2.335l-11.592 12.879c-8.49 9.43-13.159 21.599-13.159 34.288h16.501c0-8.597 3.168-16.855 8.919-23.249l64.369-71.514 2.236-6.708c2.797-8.391 10.61-14.034 19.463-14.034 11.311 0 20.519 9.207 20.519 20.519 0 8.844-5.643 16.674-14.017 19.463l-7.698 2.566-62.909 90.861c-6.551 9.455-17.317 15.098-28.827 15.098-19.332-.001-35.057-15.726-35.057-35.065zm222.759 85.003-165.007-.421v-38.356c7.788-3.82 14.62-9.537 19.702-16.872l59.766-86.34 2.483-.825c.19-.066.355-.165.545-.231.198.066.371.165.578.231l2.475.825 59.766 86.34c5.082 7.335 11.913 13.052 19.702 16.872v38.777zm22.697-49.939c-11.509 0-22.276-5.643-28.827-15.106l-61.11-88.254c5.932-6.633 9.488-15.28 9.488-24.627 0-7.087-2.104-13.654-5.569-19.281 5.808 2.079 10.511 6.691 12.549 12.796l2.236 6.716 64.369 71.514c5.751 6.386 8.919 14.644 8.919 23.241h16.501c0-12.681-4.67-24.858-13.159-34.288l-11.592-12.879v-2.335h41.252v47.439c-.001 19.339-15.726 35.064-35.057 35.064zm35.056-99.004h-41.252v-13.085c0-9.735-3.787-18.877-10.668-25.758l-11.666 11.674c3.762 3.762 5.833 8.762 5.833 14.083v13.58l-33.967-37.745-1.155-3.449c-3.069-9.207-9.513-16.534-17.664-20.898 3.11-3.028 5.767-6.559 7.854-10.478l45.171 5.858c32.787 4.257 57.513 32.399 57.513 65.458v.76z"></path><path d="m462.259 33.001h16.501v33.001h-16.501z"></path><path d="m478.759 66.003h33.001v16.501h-33.001z"></path><path d="m462.259 82.503h16.501v33.001h-16.501z"></path><path d="m429.257 66.003h33.001v16.501h-33.001z"></path><path d="m33.241 66.003h16.501v33.001h-16.501z"></path><path d="m49.741 99.004h33.001v16.501h-33.001z"></path><path d="m33.241 115.505h16.501v33.001h-16.501z"></path><path d="m.239 99.004h33.001v16.501h-33.001z"></path><path d="m82.743 181.508h16.501v16.501h-16.501z"></path><path d="m66.242 198.008h16.501v16.501h-16.501z"></path><path d="m82.743 214.509h16.501v16.501h-16.501z"></path><path d="m99.243 198.008h16.501v16.501h-16.501z"></path><path d="m33.241 280.512h16.501v16.501h-16.501z"></path><path d="m16.74 297.012h16.501v16.501h-16.501z"></path><path d="m33.241 313.513h16.501v16.501h-16.501z"></path><path d="m49.741 297.012h16.501v16.501h-16.501z"></path><path d="m33.241 429.018h16.501v16.501h-16.501z"></path><path d="m16.74 445.519h16.501v16.501h-16.501z"></path><path d="m33.241 462.019h16.501v16.501h-16.501z"></path><path d="m49.741 445.519h16.501v16.501h-16.501z"></path><path d="m379.755 197.48h16.501v16.501h-16.501z"></path><path d="m363.254 213.981h16.501v16.501h-16.501z"></path><path d="m379.755 230.482h16.501v16.501h-16.501z"></path><path d="m396.256 213.981h16.501v16.501h-16.501z"></path><path d="m478.759 280.512h16.501v16.501h-16.501z"></path><path d="m462.259 297.012h16.501v16.501h-16.501z"></path><path d="m478.759 313.513h16.501v16.501h-16.501z"></path><path d="m495.26 297.012h16.501v16.501h-16.501z"></path><path d="m445.758 437.268h16.501v16.501h-16.501z"></path><path d="m429.257 453.769h16.501v16.501h-16.501z"></path><path d="m445.758 470.27h16.501v16.501h-16.501z"></path><path d="m462.259 453.769h16.501v16.501h-16.501z"></path></g></g></svg> 