<?xml version="1.0" encoding="UTF-8"?> <svg xmlns="http://www.w3.org/2000/svg" id="Layer_1" viewBox="0 0 53 53"><g id="XMLID_2596_"><g id="XMLID_2597_"><path d="m49.9690552 31.834446-8.0823097-5.8373356c-.234417-.1682987-.5419617-.1923409-.8014183-.0611095-.2564545.1312332-.4187431.3967037-.4187431.6852131v2.4152775h-8.3557968c-2.511446 0-4.7023239 1.4195137-5.8112888 3.4971924-1.1079617-2.0776787-3.2998428-3.4971924-5.8102875-3.4971924h-8.355795v-2.4152775c0-.2885094-.1622877-.5539799-.4187422-.6852131-.2594595-.1312313-.5670033-.1071892-.8014183.0611095l-8.0813098 5.8373356c-.3325889.2394218-.5319419.6281128-.5319419 1.037838-.0010018.4107285.1973493.7994156.5309401 1.0418434l8.0823116 5.8363342c.2344151.1682968.5419588.1923409.8014183.0611076.2564545-.1322327.4187422-.3967018.4187422-.6852112v-2.4152794h5.1451092c1.1710739 0 2.1317749.9586983 2.1417923 2.1297722v9.2834396c0 .4247513.3446102.7693596.7693634.7693596h12.2196369c.4247513 0 .7693634-.3446083.7693634-.7693596v-9.2774277c.0100174-1.1770859.9707184-2.1357841 2.1427917-2.1357841h5.1451111v2.4152794c0 .2885094.1622887.5529785.4187431.6852112.2584572.1302338.5660019.1071892.8014183-.0611076l8.083313-5.8373337c.3325882-.2414284.530941-.6301155.5299377-1.040844.0000001-.4097252-.1993522-.7984161-.5309409-1.0378379z"></path></g><g id="XMLID_2681_"><path d="m17.9233761 15.0938034c.010643.037817.0138988.0753832.0249825.1132002.0088272.030179.0274849.0537205.0395069.0818949.0086403.0182829.0083904.0384436.0185947.0563498.0040703.0071383.0122719.0095167.0165291.01653.0730057.1306057.178442.2314091.3061676.2992792.7146397 4.0201178 4.0037136 7.1043291 7.6874866 7.1043291 3.6573524 0 6.9278297-3.0436382 7.673214-7.0241871.3307724-.0428257.5999374-.2787437.6595421-.6193466.0961685-.5609932.1382446-2.1848688.1382446-2.6236458 0-4.627193-3.8037357-8.3918591-8.4790134-8.3918591-4.6662636 0-8.462986 3.7646661-8.462986 8.3918591 0 .8299694.1299801 1.6852341.3660851 2.5430031.0017528.018032.0085792.0346861.0116462.0525932zm3.9399147-1.0608787c1.034832-.584034 2.2589989-1.4585829 2.7268276-3.0814562 1.7895432 1.8162165 4.3327351 3.7150784 7.5872459 4.5154953-.6132717 3.2161951-3.2866936 5.7596979-6.1607208 5.7596979-2.9534798 0-5.6927052-2.6835003-6.205862-6.024416z"></path></g><g id="XMLID_2683_"><path d="m26.4998131 29.9467278c1.5079823-1.5489922 3.5903568-2.4517155 5.8061562-2.4517155h6.2881966c-.7795677-2.9953041-3.1697388-5.3444633-6.1959076-6.0420742-1.7028294 1.7644997-3.980175 2.851799-6.3805504 2.851799-2.3183537 0-4.5033474-.9950104-6.1754341-2.6362915-2.6670971.8923302-4.7289982 3.0877171-5.4368143 5.8265667h6.2882605c2.2157343 0 4.2981719.9027233 5.8060931 2.4517155z"></path></g></g></svg> 