<?xml version="1.0" encoding="UTF-8"?> <svg xmlns="http://www.w3.org/2000/svg" xmlns:xodm="http://www.corel.com/coreldraw/odm/2003" clip-rule="evenodd" fill-rule="evenodd" height="512" image-rendering="optimizeQuality" shape-rendering="geometricPrecision" text-rendering="geometricPrecision" viewBox="0 0 512 512" width="512"><g id="Layer_x0020_1"><path d="m503.81 369.01h-22.87v28.01c0 4.58-3.65 8.3-8.15 8.3h-32.01c0 5.17.87 31.57-.56 34.96-1.1 2.61-3.72 4.25-6.51 4.25h-426.68c-2.99 0-5.65-1.94-6.64-4.75-1.59-9.74-.24-291.47 0-292.03 1.19-2.79 3.39-4.76 6.63-4.76h45.48c0-43.6-4.9-39.21 27.44-39.21l-.02-28.01c0-4.58 3.66-8.3 8.16-8.3h415.27c4.75 0 8.63 3.96 8.63 8.82v284.42c0 4.57-3.67 8.3-8.17 8.3zm-63.03 22.32h26.16v-273.55h-400.44v25.21h367.28c3.85 0 6.98 3.19 7 7zm-378.64-234.34h-35.25l188.96 151.94 197.37-151.94h-351.08zm-35.24 273.54h386.32l-166.2-127.93-27 20.78c-2.56 1.97-6.13 1.93-8.65-.09l-25.55-20.55zm399.88-7.22v-259.1l-168.28 129.55zm-412.76-258.71v258.32l160.63-129.16zm466.92 190.41h17.04v-273.55h-404.06l.02 22.32h378.39c4.75 0 8.61 3.96 8.61 8.83z" fill="#606062"></path><g fill="#ffe600"><path d="m215.85 308.93 197.37-151.94h-351.08-35.25z"></path><path d="m426.78 164.21-168.28 129.55 168.28 129.55z"></path><path d="m220.02 323.38c-2.56 1.97-6.13 1.93-8.65-.09l-25.55-20.55-158.92 127.79h386.32l-166.2-127.93z"></path><path d="m14.02 422.92 160.63-129.16-160.63-129.16z"></path></g><path d="m66.5 142.99h367.28c3.85 0 6.98 3.19 7 7v241.34h26.16v-273.55h-400.44z" fill="#99a4ac"></path><path d="m93.94 103.78h378.39c4.75 0 8.61 3.96 8.61 8.83v242.4h17.04v-273.55h-404.06z" fill="#99a4ac"></path></g></svg> 