<?xml version="1.0" encoding="UTF-8"?> <svg xmlns="http://www.w3.org/2000/svg" fill="none" height="512" viewBox="0 0 24 24" width="512"><g fill="rgb(0,0,0)"><path d="m19.6785 2.23534c-.4223-.35591-1.0532-.30209-1.4091.12022s-.3021 1.05318.1202 1.40909c1.1003.92727 1.6104 2.10162 1.6104 3.23535s-.5101 2.30808-1.6104 3.2353c-.4223.356-.4761.9868-.1202 1.4091s.9868.4762 1.4091.1203c1.521-1.2819 2.3215-3.003 2.3215-4.7647s-.8005-3.48278-2.3215-4.76466z"></path><path d="m17.6444 3.94963c-.4223-.35591-1.0531-.30209-1.4091.12022-.3559.4223-.302 1.05318.1203 1.40909.5385.45387.7678 1.00778.7678 1.52106s-.2293 1.06718-.7678 1.52106c-.4223.35591-.4762.98679-.1203 1.40909.356.42235.9868.47615 1.4091.12025.9593-.80852 1.479-1.90915 1.479-3.0504s-.5197-2.24188-1.479-3.05037z"></path><path d="m5 7c0-2.76142 2.23858-5 5-5 2.7614 0 5 2.23858 5 5s-2.2386 5-5 5c-2.76142 0-5-2.23858-5-5z"></path><path d="m2 21c0-4.4183 3.58172-8 8-8 4.4183 0 8 3.5817 8 8 0 .5523-.4477 1-1 1h-14c-.55228 0-1-.4477-1-1z"></path></g></svg> 